<?xml version="1.0" encoding="utf-8"?><svg xmlns="http://www.w3.org/2000/svg" xmlns:xlink="http://www.w3.org/1999/xlink"><symbol viewBox="0 0 24 24" id="arrow-right-circle" xmlns="http://www.w3.org/2000/svg"><path fill-rule="evenodd" clip-rule="evenodd" d="M3.75 12A8.25 8.25 0 0112 3.75 8.25 8.25 0 0120.25 12 8.25 8.25 0 0112 20.25 8.25 8.25 0 013.75 12zm-1.5 0A9.75 9.75 0 0012 21.75 9.75 9.75 0 0021.75 12 9.75 9.75 0 0012 2.25 9.75 9.75 0 002.25 12zm9.542-3.006a.75.75 0 10-1.06 1.06L12.678 12l-1.947 1.946a.75.75 0 101.06 1.06l2.478-2.476a.75.75 0 000-1.06l-2.477-2.476z"/></symbol><symbol viewBox="0 0 24 24" id="arrow-up" xmlns="http://www.w3.org/2000/svg"><path fill-rule="evenodd" clip-rule="evenodd" d="M20.25 12A8.25 8.25 0 0012 3.75 8.25 8.25 0 003.75 12 8.25 8.25 0 0012 20.25 8.25 8.25 0 0020.25 12zm-18 0A9.75 9.75 0 0112 2.25 9.75 9.75 0 0121.75 12 9.75 9.75 0 0112 21.75 9.75 9.75 0 012.25 12zm10.5-2.19l1.72 1.72a.75.75 0 101.06-1.06l-3-3a.748.748 0 00-1.06 0l-3 3a.75.75 0 101.06 1.06l1.72-1.72V16a.75.75 0 001.5 0V9.81z"/></symbol><symbol viewBox="0 0 24 24" id="checkmark" xmlns="http://www.w3.org/2000/svg"><path fill-rule="evenodd" clip-rule="evenodd" d="M3.746 12a8.254 8.254 0 1116.508 0 8.254 8.254 0 01-16.508 0zM12 2.246c-5.387 0-9.754 4.367-9.754 9.754S6.613 21.754 12 21.754s9.754-4.367 9.754-9.754S17.387 2.246 12 2.246zm4.018 7.886a.75.75 0 00-1.061-1.06l-4.36 4.36-1.624-1.623a.75.75 0 00-1.061 1.06l2.168 2.168a.75.75 0 001.168-.135l4.77-4.77z"/></symbol><symbol viewBox="0 0 24 24" id="close" xmlns="http://www.w3.org/2000/svg"><path fill-rule="evenodd" clip-rule="evenodd" d="M6.873 5.813a.75.75 0 00-1.06 1.06L10.939 12l-5.126 5.127a.75.75 0 001.06 1.06L12 13.061l5.126 5.126a.75.75 0 101.061-1.06L13.06 12l5.127-5.127a.75.75 0 00-1.06-1.06L12 10.939 6.873 5.813z"/></symbol><symbol viewBox="0 0 18 17" id="demo-member" xmlns="http://www.w3.org/2000/svg"><path fill-rule="evenodd" clip-rule="evenodd" d="M12.622 7.047c.274.21.326.603.116.877a1.883 1.883 0 01-1.485.737 1.897 1.897 0 01-1.45-.735.625.625 0 01.988-.765.65.65 0 00.48.25.633.633 0 00.475-.248.625.625 0 01.876-.116zm-4.539 0c.274.21.326.603.116.877a1.883 1.883 0 01-1.485.737 1.898 1.898 0 01-1.45-.735.625.625 0 01.988-.765c.116.15.291.24.48.25a.633.633 0 00.475-.248.625.625 0 01.876-.116z"/><path fill-rule="evenodd" clip-rule="evenodd" d="M1.814 6.133a7.565 7.565 0 0114.372 0 2.468 2.468 0 010 4.738A7.57 7.57 0 019 16.072a7.57 7.57 0 01-7.186-5.2 2.468 2.468 0 010-4.738zM9 2.181a6.315 6.315 0 00-6.092 4.654.625.625 0 01-.536.457 1.217 1.217 0 000 2.42.625.625 0 01.536.457A6.32 6.32 0 009 14.822a6.32 6.32 0 006.092-4.653.625.625 0 01.536-.456 1.217 1.217 0 000-2.421.625.625 0 01-.536-.457A6.315 6.315 0 009 2.181z"/><path fill-rule="evenodd" clip-rule="evenodd" d="M6.677 10.596a.625.625 0 01.881-.06c.826.72 2.058.72 2.883 0a.625.625 0 01.822.942 3.443 3.443 0 01-4.526 0 .625.625 0 01-.06-.882zm1.698-9.057a.625.625 0 01.64-.611 2.246 2.246 0 010 4.492h-.018a2.209 2.209 0 01-1.292-.424.625.625 0 01.737-1.01c.16.117.354.181.552.184a.997.997 0 00-.008-1.992.625.625 0 01-.61-.64z"/></symbol><symbol viewBox="0 0 25 24" id="dislike" xmlns="http://www.w3.org/2000/svg"><path fill-rule="evenodd" clip-rule="evenodd" d="M12.256 17.723a.984.984 0 01-1.54.025 1.045 1.045 0 01-.238-.664v-3.27a.75.75 0 00-.75-.75H6.632c-.35 0-.678-.176-.873-.467l-.329-.491a1.051 1.051 0 01-.136-.874L6.653 6.51c.13-.45.54-.76 1.008-.76h6.289c.292 0 .57.122.769.335l1.031 1.11v5.978l-3.494 4.55zm4.994-4.295v.016c0 .169.137.306.306.306h1.888a.306.306 0 00.306-.306V6.056a.306.306 0 00-.306-.306h-1.888a.306.306 0 00-.306.306v7.372zm-.87 1.387l-2.934 3.82a2.484 2.484 0 01-3.888.067 2.542 2.542 0 01-.58-1.618v-2.52H6.632a2.55 2.55 0 01-2.12-1.132l-.328-.491a2.55 2.55 0 01-.332-2.124l1.36-4.722A2.55 2.55 0 017.66 4.25h6.289a2.55 2.55 0 011.867.814l.14.15a1.806 1.806 0 011.599-.964h1.888c.997 0 1.806.809 1.806 1.806v7.388c0 .997-.809 1.806-1.806 1.806h-1.888a1.8 1.8 0 01-1.176-.435z"/></symbol><symbol viewBox="0 0 34 34" id="interview" xmlns="http://www.w3.org/2000/svg"><path fill-rule="evenodd" clip-rule="evenodd" d="M21.887 24.781H26.4a3.92 3.92 0 013.908 3.909v.555c0 .963-.78 1.743-1.743 1.743H19.72c-.962 0-1.743-.78-1.743-1.743v-.555a3.92 3.92 0 013.909-3.909zm.005 2.125a1.795 1.795 0 00-1.789 1.788v.169h8.08v-.168a1.795 1.795 0 00-1.789-1.789h-4.502zm3.403-8.376a1.659 1.659 0 10-2.3 2.39 1.659 1.659 0 002.3-2.39zm-3.09-2.054a3.783 3.783 0 113.88 6.497 3.783 3.783 0 01-3.88-6.497zM6.24 22.06h4.513a3.92 3.92 0 013.908 3.909v.555c0 .962-.78 1.743-1.743 1.743H4.075c-.963 0-1.743-.78-1.743-1.743v-.556A3.92 3.92 0 016.24 22.06zm.005 2.125a1.795 1.795 0 00-1.788 1.788v.169h8.079v-.169a1.795 1.795 0 00-1.788-1.788H6.245zm3.403-8.377a1.659 1.659 0 10-2.3 2.39 1.659 1.659 0 002.3-2.39zm-3.09-2.053a3.784 3.784 0 113.88 6.497 3.784 3.784 0 01-3.88-6.497zm5.298-6.959a3.784 3.784 0 013.783-3.784h9.524a3.784 3.784 0 013.784 3.784v2.72a3.784 3.784 0 01-3.784 3.784h-3.44a.222.222 0 00-.142.051l-.007.006-2.789 2.271-.002.002a1.743 1.743 0 01-2.846-1.352V13.3h-.298a3.784 3.784 0 01-3.783-3.783V6.796zm3.783-1.659c-.916 0-1.658.743-1.658 1.659v2.72c0 .917.742 1.66 1.658 1.66H17c.587 0 1.063.475 1.063 1.062v1.239l2.167-1.765a2.347 2.347 0 011.5-.537h.002-.004 3.435c.916 0 1.659-.742 1.659-1.658V6.796a1.66 1.66 0 00-1.659-1.659H15.64z"/></symbol><symbol viewBox="0 0 25 24" id="like" xmlns="http://www.w3.org/2000/svg"><path fill-rule="evenodd" clip-rule="evenodd" d="M12.744 6.277a.984.984 0 011.54-.025c.153.185.238.42.238.664v3.27c0 .415.336.75.75.75h3.096c.35 0 .678.176.873.467l.329.491c.172.258.222.579.136.874l-1.359 4.722c-.13.45-.54.76-1.008.76H11.05a1.05 1.05 0 01-.769-.335l-1.031-1.11v-5.978l3.494-4.55zM7.75 10.572v-.016a.306.306 0 00-.306-.306H5.556a.306.306 0 00-.306.306v7.388c0 .169.137.306.306.306h1.888a.306.306 0 00.306-.306v-7.372zm.87-1.387l2.934-3.82a2.484 2.484 0 013.888-.067c.376.456.58 1.03.58 1.618v2.52h2.346a2.55 2.55 0 012.12 1.132l.328.491a2.55 2.55 0 01.332 2.124l-1.36 4.722a2.55 2.55 0 01-2.449 1.845H11.05a2.55 2.55 0 01-1.867-.814l-.14-.15a1.806 1.806 0 01-1.599.964H5.556a1.806 1.806 0 01-1.806-1.806v-7.388c0-.997.809-1.806 1.806-1.806h1.888a1.8 1.8 0 011.176.435z"/></symbol><symbol viewBox="0 0 16 16" id="logout" xmlns="http://www.w3.org/2000/svg"><path fill-rule="evenodd" clip-rule="evenodd" d="M9.551 1.54a1.685 1.685 0 00-2.05 1.646v9.657c0 1.078.997 1.88 2.05 1.645l2.962-.659a1.685 1.685 0 001.32-1.644V3.844c0-.79-.548-1.474-1.32-1.645l-2.962-.658zm2.745 11.313l-2.962.659a.685.685 0 01-.834-.669V3.186c0-.439.406-.764.834-.67l2.963.66a.684.684 0 01.536.668v8.34c0 .322-.223.6-.537.67zM10.5 7.32a.5.5 0 00-1 0v1.333a.5.5 0 001 0V7.32zm-7.833 2.847a.5.5 0 01.5.5v1.361c0 .46.373.833.833.833h2a.5.5 0 010 1H4a1.833 1.833 0 01-1.833-1.833v-1.361a.5.5 0 01.5-.5zM3.167 4c0-.46.373-.833.833-.833h2a.5.5 0 000-1H4c-1.013 0-1.833.82-1.833 1.833v1.333a.5.5 0 101 0V4zm-1 4a.5.5 0 01.5-.5h2.126l-.48-.48a.5.5 0 01.707-.707l1.334 1.333a.499.499 0 010 .708L5.02 9.687a.5.5 0 01-.707-.707l.48-.48H2.667a.5.5 0 01-.5-.5z"/></symbol><symbol viewBox="0 0 24 24" id="loupe" xmlns="http://www.w3.org/2000/svg"><path fill-rule="evenodd" clip-rule="evenodd" d="M4.746 11.059a6.312 6.312 0 1112.624 0 6.312 6.312 0 01-12.624 0zm11.28 6.028a7.812 7.812 0 111.06-1.06l3.447 3.446a.75.75 0 01-1.06 1.06l-3.447-3.446z" opacity=".5"/></symbol><symbol viewBox="0 0 24 24" id="menu-club" xmlns="http://www.w3.org/2000/svg"><path fill-rule="evenodd" clip-rule="evenodd" d="M6.248 9.532V14.5c0 .967.784 1.75 1.75 1.75h8.004a1.75 1.75 0 001.75-1.748V9.531a1.25 1.25 0 00-1.943-1.04l-1.6 1.067-1.169-1.753a1.25 1.25 0 00-2.08 0L9.79 9.558l-1.6-1.066a1.25 1.25 0 00-1.943 1.04zM12 8.949l-1.377 2.065a.75.75 0 01-1.04.208L7.748 9.998v4.503c0 .138.112.25.25.25h8.004a.25.25 0 00.25-.25V9.998l-1.835 1.224a.75.75 0 01-1.04-.208L12 8.949z"/><path fill-rule="evenodd" clip-rule="evenodd" d="M12 2.246c-5.387 0-9.754 4.367-9.754 9.754S6.613 21.754 12 21.754s9.754-4.367 9.754-9.754S17.387 2.246 12 2.246zM3.746 12a8.254 8.254 0 1116.508 0 8.254 8.254 0 01-16.508 0z"/></symbol><symbol viewBox="0 0 24 24" id="menu-game" xmlns="http://www.w3.org/2000/svg"><path fill-rule="evenodd" clip-rule="evenodd" d="M14.7 15.5c.4-.3.6-.7.5-1.2l-.3-1.6 1.1-1.1c.3-.3.5-.8.3-1.2-.2-.4-.5-.8-1-.8l-1.6-.2L13 8c-.2-.4-.6-.7-1.1-.7-.5 0-.9.3-1.1.7l-.7 1.4-1.5.2c-.5.1-.8.4-1 .8-.1.4 0 .9.3 1.2L9 12.7l-.3 1.6c-.1.5.1.9.5 1.2.2.2.5.2.7.2.2 0 .4 0 .6-.1l1.4-.7 1.4.7c.5.2 1 .2 1.4-.1zm-2.3-2.1c-.1 0-.1 0 0 0-.3-.1-.5-.1-.8 0l-1.2.6.2-1.4c0-.2 0-.5-.2-.7l-1-1 1.4-.2c.2 0 .5-.2.6-.4l.6-1.2.6 1.3c.1.2.3.4.6.4l1.4.2-1 1c-.2.2-.3.4-.2.7l.2 1.4-1.2-.7zM9 17.7c-2 .1-3.3 1.5-3.5 3.3 0 .4.1.9.4 1.2.3.3.7.4 1.1.4h.1c1.9-.1 3.2-1.5 3.4-3.3 0-.4-.1-.9-.4-1.2-.3-.2-.7-.4-1.1-.4zm-1.9 3.5c.1-1.1.8-1.9 2-2-.1 1.1-.9 1.9-2 2zm-.5-5.4c0-.4-.2-.8-.5-1.1-.7-.6-1.5-.9-2.4-.9-.9 0-1.7.3-2.4.9-.3.3-.5.7-.5 1.2 0 .4.2.8.5 1.1.7.6 1.5.9 2.4.9.9 0 1.7-.3 2.4-.9.3-.3.5-.7.5-1.2zm-2.9.6c-.5 0-1-.2-1.4-.5.4-.4.9-.6 1.4-.6.5 0 1 .2 1.4.5-.4.4-.9.6-1.4.6zm.2-4.4H4c.4 0 .8-.2 1-.4.3-.3.5-.7.5-1.2C5.4 8.5 4 7.1 2.1 7H2c-.4 0-.8.1-1 .4-.3.3-.5.7-.5 1.2.1 1.9 1.5 3.2 3.4 3.4zm.1-1.5c-1.1-.1-1.9-.9-2-2 1.1.1 1.9.9 2 2zm2.3-3.3c.4 0 .8-.2 1.1-.5 1.3-1.5 1.3-3.4 0-4.9-.2-.3-.7-.5-1.1-.5-.4 0-.8.2-1.1.5-1.3 1.5-1.3 3.4 0 4.9.2.3.7.5 1.1.5zm0-4.4c.8.9.8 2 0 2.9-.8-.9-.8-2 0-2.9zM15 17.7c-.5 0-.9.2-1.2.4-.3.3-.5.7-.4 1.2.1 1.9 1.5 3.2 3.4 3.3h.1c.4 0 .8-.2 1.1-.4.3-.3.5-.7.4-1.2-.1-1.8-1.5-3.2-3.4-3.3zm0 1.5c1.1.1 1.9.8 2 2-1.2-.1-2-.9-2-2zm5.3-5.4c-.9 0-1.7.3-2.4.9-.3.3-.5.7-.5 1.1 0 .4.2.8.5 1.1.7.6 1.5.9 2.4.9.9 0 1.7-.3 2.4-.9.3-.3.5-.7.5-1.1 0-.4-.2-.8-.5-1.1-.7-.6-1.5-.9-2.4-.9zm0 2.6c-.5 0-1-.2-1.4-.6.4-.4.9-.5 1.4-.5.5 0 1 .2 1.4.6-.4.3-.9.5-1.4.5zm-1.8-6c0 .4.1.9.5 1.2.3.3.7.4 1 .4h.1c1.9-.2 3.2-1.5 3.3-3.4 0-.4-.1-.9-.5-1.2-.1-.3-.5-.4-.9-.4h-.1c-1.9.1-3.3 1.5-3.4 3.4zM22 8.5c-.1 1.1-.8 1.9-2 2 .1-1.1.9-1.9 2-2zm-4.3-1.3c.4 0 .8-.2 1.1-.5 1.3-1.5 1.3-3.4 0-4.9-.3-.3-.7-.5-1.1-.5-.4 0-.8.2-1.1.5-1.3 1.5-1.3 3.4 0 4.9.3.3.7.5 1.1.5zm0-4.4c.8.9.8 2 0 2.9-.8-.9-.8-2 0-2.9z"/></symbol><symbol viewBox="0 0 24 24" id="menu-profile" xmlns="http://www.w3.org/2000/svg"><path fill-rule="evenodd" clip-rule="evenodd" d="M17.834 6.166a8.25 8.25 0 10-11.562 11.77A8.58 8.58 0 0112 15.75c2.202 0 4.207.83 5.73 2.186l.104-.102a8.25 8.25 0 000-11.667zm-1.295 12.725A7.079 7.079 0 0012 17.25a7.076 7.076 0 00-4.539 1.641 8.26 8.26 0 009.078 0zm2.355-13.785c3.808 3.807 3.808 9.98 0 13.788-3.807 3.808-9.98 3.808-13.788 0-3.808-3.807-3.808-9.98 0-13.788 3.807-3.808 9.98-3.808 13.788 0zM13.46 8.854a2.063 2.063 0 10-2.918 2.918 2.063 2.063 0 002.918-2.918zm1.06-1.06a3.563 3.563 0 10-5.038 5.038 3.563 3.563 0 005.038-5.038z"/></symbol><symbol viewBox="0 0 24 24" id="menu-top" xmlns="http://www.w3.org/2000/svg"><path fill-rule="evenodd" clip-rule="evenodd" d="M16 2.25a.75.75 0 01.75.75v7.74a.75.75 0 01-1.5 0V3a.75.75 0 01.75-.75zm-8 0a.75.75 0 01.75.75v7.74a.75.75 0 01-1.5 0V3A.75.75 0 018 2.25z"/><path fill-rule="evenodd" clip-rule="evenodd" d="M13.388 9.113l1.33 2.696 2.972.432c1.271.184 1.776 1.746.857 2.641l-2.151 2.096.508 2.96c.217 1.264-1.109 2.23-2.246 1.633L12 20.173l-2.66 1.399c-1.135.595-2.463-.367-2.245-1.633l.508-2.96-2.151-2.096c-.919-.895-.414-2.457.857-2.641l2.973-.432 1.328-2.696c.568-1.151 2.21-1.151 2.778 0zm-1.389 9.463a.755.755 0 00-.374.1l-2.981 1.567a.068.068 0 01-.018.007h-.008a.055.055 0 01-.026-.011.055.055 0 01-.018-.021.024.024 0 01-.002-.007l.001-.019.575-3.35a.75.75 0 00-.216-.663l-2.434-2.371a.063.063 0 01-.012-.015.025.025 0 01-.002-.007.055.055 0 01.002-.028.055.055 0 01.014-.024.025.025 0 01.006-.004.068.068 0 01.019-.005l3.363-.489a.75.75 0 00.565-.41l1.503-3.05a.066.066 0 01.01-.015.025.025 0 01.006-.005.054.054 0 01.027-.007c.013 0 .022.004.027.007a.025.025 0 01.006.005.064.064 0 01.01.016l1.504 3.049a.75.75 0 00.565.41l3.363.49c.01 0 .016.003.018.004a.023.023 0 01.007.004c.004.004.01.011.014.024a.055.055 0 01.002.028.024.024 0 01-.002.007.063.063 0 01-.013.015l-2.433 2.37a.75.75 0 00-.216.665l.575 3.349a.038.038 0 010 .019v.004l-.001.003a.055.055 0 01-.019.021.055.055 0 01-.025.011.02.02 0 01-.007 0 .064.064 0 01-.018-.007l-2.982-1.567a.755.755 0 00-.375-.1z"/><path fill-rule="evenodd" clip-rule="evenodd" d="M7 3.75c-.69 0-1.25.56-1.25 1.25v2.861c0 .448.24.862.628 1.084l4.057 2.326a.75.75 0 11-.746 1.302l-4.057-2.326A2.75 2.75 0 014.25 7.86V5A2.75 2.75 0 017 2.25h10A2.75 2.75 0 0119.75 5v2.861c0 .985-.526 1.896-1.382 2.386l-4.057 2.326a.75.75 0 11-.746-1.302l4.057-2.326a1.25 1.25 0 00.628-1.084V5c0-.69-.56-1.25-1.25-1.25H7z"/></symbol><symbol viewBox="0 0 35 34" id="message-read" xmlns="http://www.w3.org/2000/svg"><path fill-rule="evenodd" clip-rule="evenodd" d="M23.822 12.03a1.063 1.063 0 00-1.503-1.502l-5.195 5.195a1.063 1.063 0 001.503 1.503l5.195-5.196zm5.893-1.502a1.063 1.063 0 010 1.502L18.63 23.114a1.063 1.063 0 01-1.503 0L9.046 15.03a1.063 1.063 0 011.502-1.503l7.332 7.332 10.332-10.332a1.062 1.062 0 011.503 0zm-24.096 5.9a1.062 1.062 0 011.502 0l5.542 5.542a1.063 1.063 0 01-1.502 1.503L5.619 17.93a1.063 1.063 0 010-1.503z" stroke="#fff" stroke-width=".5" stroke-linecap="round" stroke-linejoin="round"/></symbol><symbol viewBox="0 0 24 24" id="money-withdraw" xmlns="http://www.w3.org/2000/svg"><path fill-rule="evenodd" clip-rule="evenodd" d="M3.75 5c0-.69.56-1.25 1.25-1.25h14c.69 0 1.25.56 1.25 1.25v8c0 .69-.56 1.25-1.25 1.25h-3a.75.75 0 000 1.5h3A2.75 2.75 0 0021.75 13V5A2.75 2.75 0 0019 2.25H5A2.75 2.75 0 002.25 5v8A2.75 2.75 0 005 15.75h3a.75.75 0 000-1.5H5c-.69 0-1.25-.56-1.25-1.25V5zM6.5 6.25a.75.75 0 01.75.75v4a.75.75 0 01-1.5 0V7a.75.75 0 01.75-.75zm6.384 1.866a1.25 1.25 0 10-1.768 1.767 1.25 1.25 0 001.768-1.767zm1.06-1.06a2.75 2.75 0 10-3.888 3.888 2.75 2.75 0 003.888-3.888zM18.25 7a.75.75 0 00-1.5 0v4a.75.75 0 001.5 0V7zm-5.5 9a.75.75 0 00-1.5 0v3.19l-.72-.72a.75.75 0 10-1.06 1.06l2 2a.748.748 0 001.06 0l2-2a.75.75 0 10-1.06-1.06l-.72.72V16z"/></symbol><symbol viewBox="0 0 19 19" id="phone" xmlns="http://www.w3.org/2000/svg"><path d="M13.758 18.025c-.3 0-.5 0-.8-.1-2.9-.5-5.9-2.2-8.3-4.7-2.4-2.4-4.1-5.3-4.6-8.2-.2-1.3.1-2.6 1.1-3.5l.7-.7c1.1-1.1 2.8-1.1 3.9 0l1 1.2c.9.9.9 2.3-.1 3.3l-.8.8c.6 1.3 1.4 2.5 2.5 3.6s2.3 1.9 3.6 2.5l.9-.9c.8-.8 2.3-.9 3.2 0l1.2 1.2c1.1 1.1 1.1 2.8 0 3.9l-.7.7c-.7.6-1.7.9-2.8.9zm-10.1-16.5c-.3 0-.6.1-.9.4l-.6.6c-.6.6-.8 1.4-.7 2.2.5 2.6 2 5.3 4.3 7.5 2.3 2.3 4.9 3.8 7.5 4.3.8.2 1.6-.1 2.2-.6l.7-.7c.5-.5.5-1.3 0-1.8l-1.2-1.1c-.3-.3-.8-.3-1.1 0l-.9.9c-.4.4-1.1.6-1.7.3-1.5-.6-2.8-1.6-4-2.8-1.2-1.2-2.2-2.6-2.8-4-.2-.6-.1-1.3.4-1.7l.8-.8c.4-.4.4-.9.1-1.2l-1.2-1.1c-.2-.3-.6-.4-.9-.4z"/></symbol><symbol viewBox="0 0 134 134" id="play-video" xmlns="http://www.w3.org/2000/svg"><path clip-rule="evenodd" d="M117.25 67v0c0 27.755-22.495 50.25-50.25 50.25v0c-27.755 0-50.25-22.495-50.25-50.25v0c0-27.755 22.495-50.25 50.25-50.25v0c27.755 0 50.25 22.495 50.25 50.25z" stroke="#fff" stroke-width="8" stroke-linecap="round" stroke-linejoin="round"/><path clip-rule="evenodd" d="M61.087 50.574l21.675 12.82c2.741 1.618 2.741 5.588 0 7.207l-21.675 12.82c-2.792 1.652-6.32-.363-6.32-3.607V54.18c0-3.244 3.528-5.26 6.32-3.607v0z" stroke="#fff" stroke-width="8" stroke-linecap="round" stroke-linejoin="round"/></symbol><symbol viewBox="0 0 20 20" id="question" xmlns="http://www.w3.org/2000/svg"><path fill-rule="evenodd" clip-rule="evenodd" d="M10 1.746a8.254 8.254 0 100 16.508 8.254 8.254 0 000-16.508zM.246 10C.246 4.613 4.613.246 10 .246S19.754 4.613 19.754 10 15.387 19.754 10 19.754.246 15.387.246 10zm9.73-4.752a3.048 3.048 0 013.175 2.901c0 1.03-.559 1.98-1.46 2.48l-1.327.738a.75.75 0 11-.728-1.311l1.327-.738c.418-.232.68-.669.688-1.146a1.548 1.548 0 00-1.629-1.425.753.753 0 01-.072 0 1.595 1.595 0 00-1.62 1.234.75.75 0 01-1.462-.34 3.095 3.095 0 013.108-2.393zM10.6 13.3a.85.85 0 10-1.2 1.203.85.85 0 001.202-1.203z"/></symbol><symbol viewBox="0 0 22 19" id="remove-answer" xmlns="http://www.w3.org/2000/svg"><path d="M1.88 9.748h-.5v2.826h6.918V9.748H1.88zM21.286 1.8v-.5h-6.654v2.914h3.476V17.7h3.178V1.8z" stroke="#fff"/></symbol><symbol viewBox="0 0 29 30" id="remove-half" xmlns="http://www.w3.org/2000/svg"><path d="M18.012 7.94c.385-.703.575-1.494.575-2.37 0-.874-.19-1.661-.575-2.354-.375-.7-.9-1.246-1.574-1.633-.666-.397-1.423-.593-2.264-.593-.841 0-1.602.196-2.277.593a4.17 4.17 0 00-1.574 1.632v.001c-.377.693-.562 1.48-.562 2.355 0 .874.185 1.665.56 2.367l.003.003a4.3 4.3 0 001.57 1.63l.004.002c.675.387 1.436.578 2.276.578.84 0 1.597-.19 2.263-.579h.001a4.166 4.166 0 001.574-1.633zm0 0l-.22-.12m.22.12v-.001l-.22-.12m0 0a3.916 3.916 0 01-1.48 1.537m1.48-1.536c.363-.662.545-1.411.545-2.25 0-.838-.182-1.583-.545-2.235a3.797 3.797 0 00-1.48-1.536v7.557m0 0c-.625.364-1.337.545-2.138.545-.8 0-1.518-.181-2.151-.545a4.05 4.05 0 01-1.481-1.536c-.354-.662-.53-1.411-.53-2.25 0-.838.176-1.583.53-2.235a3.921 3.921 0 011.48-1.536l4.29 7.557zM4.884 4.916h-.662l.163-1.764h4.227V1.13H2.394l-.021.226L1.87 6.68l-.026.273h2.635c.952 0 1.562.132 1.887.35l.006.003c.322.202.484.496.484.92 0 .386-.149.678-.455.9-.306.22-.75.345-1.363.345-.513 0-1.012-.08-1.498-.239a4 4 0 01-1.22-.669l-.234-.191-.145.265-.768 1.411-.101.185.165.13c.476.377 1.054.665 1.73.868a6.965 6.965 0 002.1.318c.873 0 1.625-.144 2.245-.444.614-.297 1.087-.704 1.404-1.227.314-.516.47-1.092.47-1.722 0-.99-.36-1.79-1.085-2.374-.726-.592-1.814-.866-3.216-.866zm10.79-1.207l.004.004c.384.425.592 1.033.592 1.858 0 .824-.208 1.438-.594 1.873-.377.426-.87.643-1.503.643-.632 0-1.13-.216-1.517-.643-.377-.435-.58-1.049-.58-1.873 0-.827.204-1.435.58-1.86.387-.437.886-.656 1.517-.656.632 0 1.124.22 1.502.654zm11.942 21.692c.385-.702.575-1.493.575-2.369 0-.874-.19-1.661-.575-2.354-.375-.7-.9-1.246-1.574-1.633-.666-.397-1.423-.593-2.264-.593-.841 0-1.602.196-2.277.593a4.171 4.171 0 00-1.574 1.632v.001c-.377.693-.562 1.48-.562 2.354 0 .875.185 1.666.56 2.367l.003.004a4.3 4.3 0 001.57 1.63l.004.002c.675.387 1.436.578 2.276.578.84 0 1.597-.19 2.263-.579h.001a4.166 4.166 0 001.574-1.633zm0 0l-.22-.12m.22.12l-.22-.12m0 0a3.916 3.916 0 01-1.48 1.537m1.48-1.536c.363-.662.545-1.411.545-2.25 0-.838-.182-1.583-.545-2.235a3.796 3.796 0 00-1.48-1.536v7.557m0 0c-.625.363-1.337.545-2.138.545-.8 0-1.518-.182-2.151-.545a4.05 4.05 0 01-1.481-1.536c-.354-.662-.53-1.411-.53-2.25 0-.838.176-1.583.53-2.235a3.92 3.92 0 011.48-1.536l4.29 7.557zm-11.427-4.44h-.662l.163-1.764h4.227v-2.022h-6.219l-.021.226-.503 5.322-.026.274h2.635c.952 0 1.562.132 1.887.35l.006.003c.322.202.484.496.484.92 0 .386-.149.678-.455.9-.306.22-.75.344-1.363.344a4.786 4.786 0 01-1.498-.238 3.999 3.999 0 01-1.22-.669l-.234-.191-.145.265-.768 1.41-.101.186.165.13c.476.377 1.054.665 1.73.868a6.964 6.964 0 002.1.318c.873 0 1.625-.144 2.245-.444.614-.297 1.087-.705 1.404-1.227.314-.516.47-1.092.47-1.722 0-.99-.36-1.79-1.085-2.374-.726-.592-1.814-.866-3.216-.866zm10.79-1.207l.004.003c.384.425.592 1.034.592 1.858 0 .825-.208 1.44-.594 1.874-.377.426-.87.642-1.503.642-.632 0-1.13-.215-1.517-.642-.377-.435-.58-1.049-.58-1.873 0-.827.204-1.436.58-1.86.387-.437.886-.656 1.517-.656.632 0 1.124.219 1.502.654z" stroke="#fff" stroke-width=".5"/><path fill-rule="evenodd" clip-rule="evenodd" d="M27.201 3.527a.873.873 0 01-.112 1.23L3.516 24.402a.873.873 0 11-1.118-1.342L25.97 3.416a.873.873 0 011.23.111z" stroke="#fff" stroke-width=".5" stroke-linecap="round"/></symbol><symbol viewBox="0 0 20 16" id="show-pwd" xmlns="http://www.w3.org/2000/svg"><path fill-rule="evenodd" clip-rule="evenodd" d="M2.12 6.418C3.498 3.6 6.57 1.75 10 1.75c3.43 0 6.502 1.85 7.88 4.668.245.5.37 1.039.37 1.582 0 .543-.125 1.083-.37 1.582C16.502 12.4 13.43 14.25 10 14.25c-3.43 0-6.502-1.85-7.88-4.668A3.59 3.59 0 011.75 8c0-.543.125-1.083.37-1.582zM10 .25C6.048.25 2.424 2.382.772 5.758A5.096 5.096 0 00.25 8c0 .775.179 1.54.522 2.242C2.424 13.618 6.048 15.75 10 15.75s7.576-2.132 9.228-5.508A5.096 5.096 0 0019.75 8c0-.775-.179-1.54-.522-2.242C17.576 2.382 13.952.25 10 .25zM8.408 6.41a2.25 2.25 0 013.184 0 2.254 2.254 0 010 3.185 2.254 2.254 0 01-3.185 0 2.254 2.254 0 010-3.185zM7.347 5.35a3.75 3.75 0 015.304-.001h.002a3.754 3.754 0 010 5.306 3.754 3.754 0 01-5.306 0 3.754 3.754 0 010-5.305z"/></symbol><symbol viewBox="0 0 18 17" id="silver-member" xmlns="http://www.w3.org/2000/svg"><path fill-rule="evenodd" clip-rule="evenodd" d="M10.213.62l6.577 3.81a1.875 1.875 0 01.067 3.204l-1.544.983V12.5c0 .443-.143.898-.464 1.257a10.144 10.144 0 01-1.975 1.709c-.905.589-2.063 1.096-3.374 1.096-1.295 0-2.495-.496-3.457-1.07a12.044 12.044 0 01-2.17-1.685 1.901 1.901 0 01-.56-1.37v-3.77l-1.5-.954v3.037a.562.562 0 11-1.125 0v-4.5a.56.56 0 01.14-.372 1.856 1.856 0 01.927-1.448L8.333.62a1.875 1.875 0 011.88 0zm.066 11.198l3.909-2.486V12.5a.752.752 0 01-.178.508 9.021 9.021 0 01-1.75 1.515c-.796.518-1.741.914-2.76.914-1.014 0-2.012-.392-2.88-.911a10.914 10.914 0 01-1.962-1.525.778.778 0 01-.22-.565V9.383l3.828 2.435c.614.39 1.399.39 2.013 0zm-.63-10.225a.75.75 0 00-.752 0l-6.578 3.81a.75.75 0 00-.027 1.282L8.87 10.87a.75.75 0 00.805 0l6.578-4.184a.75.75 0 00-.026-1.282l-6.578-3.81z"/></symbol><symbol viewBox="0 0 7 14" id="social-fb" xmlns="http://www.w3.org/2000/svg"><path d="M6.227 7.037H4.27V14H1.38V7.037H0V4.54h1.38V2.964A2.752 2.752 0 014.334.008h2.168v2.43H4.927a.571.571 0 00-.591.658V4.54h2.233l-.342 2.496z"/></symbol><symbol viewBox="0 0 14 14" id="social-google" xmlns="http://www.w3.org/2000/svg"><path d="M13.75 6.25H7.451v2.1h3.844A4.502 4.502 0 117 2.499a4.47 4.47 0 013.198 1.337l1.527-1.658A6.729 6.729 0 007 .25C3.27.25.25 3.27.25 7S3.27 13.75 7 13.75c3.265 0 6.126-2.32 6.75-5.4v-2.1z"/></symbol><symbol viewBox="0 0 22 20" id="social-letter" xmlns="http://www.w3.org/2000/svg"><path fill-rule="evenodd" clip-rule="evenodd" d="M1.75 3c0-.69.56-1.25 1.25-1.25h13.967c.709 0 1.283.574 1.283 1.283v.02c0 .464-.257.89-.668 1.106l-6.068 3.196a3.25 3.25 0 01-3.028 0L2.434 4.167a1.284 1.284 0 01-.685-1.135V3zm-1.5.033V3A2.75 2.75 0 013 .25h13.967a2.783 2.783 0 012.783 2.783v7.321a5.25 5.25 0 11-8.322 5.396H4A3.75 3.75 0 01.25 12V3.033zm18.461 8.417a.752.752 0 01-.235-.155 3.75 3.75 0 10.235.155zm-.461-5.947V9.54a5.25 5.25 0 00-6.966 4.711H4A2.25 2.25 0 011.75 12V5.502l6.036 3.18a4.75 4.75 0 004.428 0l6.036-3.179zm.53 8.68a.75.75 0 10-1.06-1.061l-1.658 1.657-.782-.782a.75.75 0 10-1.06 1.06l1.311 1.313a.75.75 0 001.061 0l2.188-2.188z"/></symbol><symbol viewBox="0 0 16 16" id="social-mail" xmlns="http://www.w3.org/2000/svg"><path d="M10.41 7.997a2.407 2.407 0 11-4.816 0 2.407 2.407 0 014.815 0zM8.002 0C3.59 0 0 3.59 0 8.003 0 12.415 3.59 16 8.003 16a7.951 7.951 0 004.507-1.394l.025-.015-1.078-1.253-.02.01a6.36 6.36 0 01-3.434 1.007 6.366 6.366 0 01-6.358-6.358A6.366 6.366 0 018.003 1.64a6.366 6.366 0 016.357 6.357c0 .457-.05.913-.15 1.37-.2.827-.777 1.077-1.213 1.042-.437-.035-.948-.346-.953-1.108V7.997a4.05 4.05 0 00-4.046-4.046A4.05 4.05 0 003.95 7.997a4.05 4.05 0 004.047 4.047c1.083 0 2.1-.426 2.868-1.194a2.603 2.603 0 002 1.194 2.72 2.72 0 001.84-.537c.482-.366.838-.892 1.033-1.524.03-.1.09-.336.09-.336v-.01a7.091 7.091 0 00.171-1.64C16.005 3.59 12.415 0 8.003 0z"/></symbol><symbol viewBox="0 0 18 15" id="social-tg" xmlns="http://www.w3.org/2000/svg"><path d="M17.949 2.024l-2.717 11.88c-.205.84-.739 1.048-1.498.653l-4.14-2.829-1.996 1.782c-.222.205-.406.376-.832.376l.297-3.909 7.671-6.428c.334-.276-.073-.429-.518-.153L4.733 8.934.65 7.75c-.888-.257-.904-.823.185-1.219L16.804.825c.739-.257 1.386.152 1.145 1.2z"/></symbol><symbol viewBox="0 0 20 12" id="social-vk" xmlns="http://www.w3.org/2000/svg"><path fill-rule="evenodd" clip-rule="evenodd" d="M19.53.826c.148-.466 0-.805-.657-.805H16.69c-.55 0-.805.297-.953.614 0 0-1.123 2.712-2.69 4.47-.508.508-.742.678-1.017.678-.148 0-.339-.17-.339-.636V.805c0-.55-.17-.805-.635-.805H7.625c-.339 0-.55.254-.55.508 0 .53.783.657.868 2.14v3.22c0 .698-.127.825-.402.825-.742 0-2.542-2.732-3.622-5.846C3.707.233 3.495 0 2.944 0H.741C.106 0 0 .297 0 .614c0 .572.741 3.453 3.453 7.266 1.8 2.605 4.363 4.003 6.672 4.003 1.398 0 1.567-.318 1.567-.847v-1.97c0-.636.127-.742.572-.742.318 0 .89.17 2.182 1.42 1.482 1.482 1.737 2.16 2.563 2.16h2.181c.636 0 .932-.318.763-.932-.19-.614-.91-1.504-1.843-2.563-.508-.593-1.27-1.25-1.504-1.567-.317-.424-.233-.593 0-.975-.02 0 2.648-3.77 2.923-5.04z"/></symbol><symbol viewBox="0 0 10 14" id="social-yandex" xmlns="http://www.w3.org/2000/svg"><path d="M6.82 13.5h2.417V0H5.719C2.172 0 .322 1.765.322 4.362c0 2.076 1.025 3.293 2.845 4.569L0 13.5h2.615l3.517-5.103-1.223-.801C3.426 6.63 2.707 5.875 2.707 4.243c0-1.44 1.04-2.403 3.028-2.403H6.82V13.5z"/></symbol><symbol viewBox="0 0 34 34" id="thumbs-down" xmlns="http://www.w3.org/2000/svg"><path fill-rule="evenodd" clip-rule="evenodd" d="M16.654 25.107c-.545.71-1.61.73-2.181.036a1.48 1.48 0 01-.338-.94v-4.635c0-.586-.475-1.062-1.062-1.062H8.687a1.49 1.49 0 01-1.237-.66l-.466-.697a1.489 1.489 0 01-.193-1.238l1.925-6.69a1.487 1.487 0 011.429-1.075h8.91c.413 0 .808.172 1.088.474l1.461 1.573v8.469l-4.95 6.445zm7.075-6.084v.023c0 .239.195.433.434.433h2.674c.24 0 .434-.194.434-.433V8.579a.434.434 0 00-.434-.433h-2.674a.434.434 0 00-.434.433v10.444zm-1.232 1.965L18.34 26.4a3.519 3.519 0 01-5.507.095 3.601 3.601 0 01-.822-2.293v-3.571H8.687a3.613 3.613 0 01-3.002-1.603l-.466-.696a3.614 3.614 0 01-.47-3.009l1.925-6.689a3.612 3.612 0 013.47-2.613h8.91c1.003 0 1.963.417 2.646 1.152l.198.214a2.558 2.558 0 012.265-1.366h2.674a2.559 2.559 0 012.559 2.558v10.467a2.559 2.559 0 01-2.559 2.558h-2.674a2.548 2.548 0 01-1.666-.616z" stroke="#fff" stroke-width=".5" stroke-linecap="round" stroke-linejoin="round"/></symbol><symbol viewBox="0 0 35 34" id="time-loading" xmlns="http://www.w3.org/2000/svg"><path fill-rule="evenodd" clip-rule="evenodd" d="M5.554 13.102h-.976a1.063 1.063 0 01-1.063-1.062V7.788a1.063 1.063 0 012.126 0v1.838a13.801 13.801 0 11-2.035 8.91 1.062 1.062 0 112.11-.238 11.677 11.677 0 101.589-7.32H8.83a1.062 1.062 0 110 2.124H5.603a1 1 0 01-.05 0zm11.334-2.987c.587 0 1.063.476 1.063 1.063v5.588l3.757 1.504a1.062 1.062 0 11-.79 1.973l-4.424-1.772a1.063 1.063 0 01-.668-.986v-6.307c0-.587.476-1.063 1.062-1.063z" stroke="#fff" stroke-width=".5" stroke-linecap="round" stroke-linejoin="round"/></symbol><symbol viewBox="0 0 23 24" id="viber" xmlns="http://www.w3.org/2000/svg"><path d="M20.311 2.34c-.596-.55-3.006-2.299-8.375-2.323 0 0-6.33-.382-9.417 2.45C.801 4.184.197 6.698.133 9.815c-.064 3.117-.146 8.959 5.485 10.542h.005l-.003 2.418s-.036.978.608 1.177c.78.243 1.237-.501 1.98-1.303.41-.44.973-1.086 1.398-1.58 3.851.324 6.813-.417 7.15-.527.777-.252 5.177-.816 5.893-6.657.738-6.02-.358-9.829-2.338-11.545zm.653 11.114c-.604 4.878-4.173 5.184-4.831 5.395-.28.09-2.881.737-6.153.524 0 0-2.437 2.94-3.198 3.705-.12.12-.259.168-.352.144-.131-.032-.167-.187-.166-.414l.021-4.017s-.003 0 0 0c-4.763-1.322-4.486-6.294-4.432-8.897.054-2.604.543-4.737 1.996-6.171 2.61-2.365 7.988-2.011 7.988-2.011 4.541.02 6.717 1.387 7.222 1.845 1.675 1.435 2.529 4.867 1.905 9.896v.001z"/><path d="M14.146 9.68c-.06-1.19-.664-1.816-1.815-1.876M15.704 10.202c.024-1.11-.305-2.036-.986-2.78-.684-.747-1.631-1.159-2.847-1.248" stroke="#fff" stroke-width=".7" stroke-linecap="round" stroke-linejoin="round"/><path d="M17.299 10.826c-.015-1.925-.59-3.441-1.726-4.548-1.136-1.107-2.548-1.667-4.237-1.679" stroke="#fff" stroke-width=".7" stroke-linecap="round" stroke-linejoin="round"/><path d="M12.391 13.746s.427.036.657-.247l.448-.564c.216-.279.738-.457 1.248-.173.383.218.755.456 1.114.711.338.25 1.032.829 1.035.829.33.279.406.689.181 1.12l-.001.01c-.248.43-.563.817-.933 1.148l-.008.006c-.321.269-.637.421-.947.458a1.262 1.262 0 01-.54-.053l-.01-.015c-.479-.135-1.276-.472-2.604-1.204-.768-.42-1.5-.902-2.187-1.445a11.47 11.47 0 01-.983-.872l-.033-.033-.033-.034-.034-.033-.033-.033c-.309-.311-.6-.64-.872-.984a15.52 15.52 0 01-1.445-2.186c-.732-1.328-1.07-2.125-1.204-2.603l-.015-.01a1.26 1.26 0 01-.053-.541c.039-.31.192-.625.459-.948.002-.003.004-.003.006-.008a4.65 4.65 0 011.148-.932l.01-.002c.431-.225.841-.149 1.12.18.002.002.58.696.828 1.035.256.36.493.731.711 1.114.285.51.107 1.033-.173 1.249l-.564.448c-.284.23-.247.656-.247.656s.835 3.16 3.954 3.956z"/></symbol><symbol viewBox="0 0 20 20" id="volume-off" xmlns="http://www.w3.org/2000/svg"><path clip-rule="evenodd" d="M9.25 12.013l2.5 2.001V5.987l-2.5 2.026h-1.5a1 1 0 00-1.001 1v2a1 1 0 001 1.001h1.5v0z" stroke="#323232" stroke-width="1.5" stroke-linecap="round" stroke-linejoin="round"/><path d="M2.985 4.388L5.486 6.39m8.524 6.819l3.002 2.4" stroke="#323232" stroke-width="1.5" stroke-linecap="round" stroke-linejoin="round"/><path clip-rule="evenodd" d="M10 19.004A9.004 9.004 0 1010 .997a9.004 9.004 0 000 18.007z" stroke="#323232" stroke-width="1.5" stroke-linecap="round" stroke-linejoin="round"/></symbol><symbol viewBox="0 0 20 20" id="volume-on" xmlns="http://www.w3.org/2000/svg"><path d="M16.364 3.636a9 9 0 010 12.728 9 9 0 01-12.728 0 9 9 0 010-12.728 9 9 0 0112.728 0" stroke="#323232" stroke-width="1.5" stroke-linecap="round" stroke-linejoin="round"/><path clip-rule="evenodd" d="M9.25 12.012l2.5 2V5.988l-2.5 2.025h-1.5a1 1 0 00-1 1v2a1 1 0 001 1h1.5v-.001z" stroke="#323232" stroke-width="1.5" stroke-linecap="round" stroke-linejoin="round"/></symbol><symbol viewBox="0 0 25 24" id="whatsapp" xmlns="http://www.w3.org/2000/svg"><path fill-rule="evenodd" clip-rule="evenodd" d="M2.521 11.75C2.521 6.373 6.928 2 12.345 2c5.416 0 9.822 4.374 9.822 9.75 0 5.375-4.406 9.748-9.822 9.748a9.89 9.89 0 01-4.65-1.16l-5.19 1.65a.257.257 0 01-.264-.066.26.26 0 01-.06-.265l1.687-4.977a9.677 9.677 0 01-1.347-4.93zm5.542 6.44a7.782 7.782 0 004.281 1.277c4.29 0 7.78-3.462 7.78-7.717 0-4.257-3.49-7.72-7.78-7.72s-7.78 3.463-7.78 7.72c0 1.635.512 3.2 1.48 4.524a.26.26 0 01.037.237l-.839 2.476 2.6-.827a.26.26 0 01.221.03zm8.856-4.72l.047.022c.19.092.342.164.43.308.127.212.076.795-.116 1.329-.243.677-1.315 1.233-1.803 1.276l-.072.007c-.112.011-.24.024-.4.024-.38 0-1.049-.066-2.461-.63-1.467-.586-2.913-1.842-4.074-3.537l-.009-.013a1.647 1.647 0 00-.033-.046c-.303-.4-1.008-1.45-1.008-2.562 0-1.236.591-1.939.94-2.16.33-.207 1.076-.305 1.213-.311l.099-.005h.014c.289 0 .497.175.654.552l.129.31c.201.484.56 1.349.587 1.401a.68.68 0 01.02.64l-.033.066a1.568 1.568 0 01-.237.376c-.039.044-.078.092-.118.14-.083.1-.169.203-.248.282a.468.468 0 00-.086.101c0 .003.004.022.025.057.162.276 1.35 1.91 2.914 2.589.068.03.294.123.307.123.014 0 .039-.025.056-.045.137-.154.577-.67.723-.886.129-.193.294-.29.491-.29.12 0 .234.036.34.074.234.085 1.45.68 1.709.807z"/></symbol></svg>