<svg width="20" height="20" viewBox="0 0 20 20" fill="none" xmlns="http://www.w3.org/2000/svg">
    <path fill-rule="evenodd" clip-rule="evenodd" d="M4.24799 7.53172V12.5009C4.24799 13.4676 5.03167 14.2513 5.9984 14.2513H14.0017C14.9676 14.2513 15.7508 13.4689 15.7521 12.5034L15.7522 12.5009V7.53172C15.7522 7.07065 15.4984 6.647 15.0919 6.42945C14.6853 6.21189 14.1921 6.23574 13.8085 6.49149L12.2089 7.55784L11.0403 5.8049C10.8085 5.45709 10.4181 5.24817 10.0001 5.24817C9.58208 5.24817 9.19173 5.45708 8.95986 5.80489L7.79122 7.55785L6.19168 6.49151C5.80806 6.23577 5.31481 6.21192 4.9083 6.42946C4.50182 6.64699 4.24799 7.07061 4.24799 7.53172ZM10.0001 6.9487L8.62327 9.01393C8.39351 9.35858 7.92786 9.45171 7.58322 9.22195L5.74799 7.99849V12.5009C5.74799 12.6392 5.8601 12.7513 5.9984 12.7513H14.0017C14.14 12.7513 14.2522 12.6392 14.2522 12.5009V7.99847L12.4169 9.22195C12.2514 9.33228 12.0489 9.37236 11.8538 9.33334C11.6588 9.29433 11.4872 9.17943 11.3769 9.01392L10.0001 6.9487Z" fill="url(#paint0_linear_436_1705)"/>
    <path fill-rule="evenodd" clip-rule="evenodd" d="M10 0.246094C4.61318 0.246094 0.246277 4.613 0.246277 9.99984C0.246277 15.3867 4.61318 19.7536 10 19.7536C15.3869 19.7536 19.7538 15.3867 19.7538 9.99984C19.7538 4.613 15.3869 0.246094 10 0.246094ZM1.74628 9.99984C1.74628 5.44142 5.44161 1.74609 10 1.74609C14.5584 1.74609 18.2538 5.44142 18.2538 9.99984C18.2538 14.5583 14.5584 18.2536 10 18.2536C5.44161 18.2536 1.74628 14.5583 1.74628 9.99984Z" fill="url(#paint1_linear_436_1705)"/>
    <defs>
        <linearGradient id="paint0_linear_436_1705" x1="10" y1="0.246094" x2="10" y2="19.7536" gradientUnits="userSpaceOnUse">
            <stop stop-color="#8000FF"/>
            <stop offset="1" stop-color="#DB00FF"/>
        </linearGradient>
        <linearGradient id="paint1_linear_436_1705" x1="10" y1="0.246094" x2="10" y2="19.7536" gradientUnits="userSpaceOnUse">
            <stop stop-color="#8000FF"/>
            <stop offset="1" stop-color="#DB00FF"/>
        </linearGradient>
    </defs>
</svg>
