<svg width="20" height="21" viewBox="0 0 20 21" fill="none" xmlns="http://www.w3.org/2000/svg">
    <path fill-rule="evenodd" clip-rule="evenodd" d="M13.6223 9.04742C13.8963 9.25734 13.9482 9.64964 13.7383 9.92365C13.3902 10.378 12.8543 10.6494 12.2821 10.6611C12.2723 10.6613 12.2626 10.6613 12.2529 10.6611C11.6838 10.6462 11.1515 10.3763 10.803 9.92614C10.5917 9.65318 10.6417 9.26063 10.9146 9.04934C11.1876 8.83805 11.5801 8.88804 11.7914 9.16099C11.9072 9.31058 12.0826 9.40174 12.271 9.41094C12.4579 9.40282 12.632 9.31238 12.746 9.16348C12.9559 8.88947 13.3482 8.83751 13.6223 9.04742Z" fill="#6C89A9"/>
    <path fill-rule="evenodd" clip-rule="evenodd" d="M9.08285 9.04742C9.35687 9.25733 9.40884 9.64963 9.19893 9.92365C8.8511 10.3777 8.31575 10.649 7.74392 10.6611C7.73407 10.6613 7.72422 10.6613 7.71437 10.6611C7.14514 10.6462 6.61266 10.3765 6.26381 9.92646C6.05235 9.65364 6.10209 9.26105 6.37491 9.04958C6.64773 8.83812 7.04032 8.88786 7.25178 9.16068C7.36785 9.31043 7.54347 9.40168 7.73222 9.41093C7.91889 9.40264 8.09269 9.31222 8.20662 9.16349C8.41654 8.88947 8.80884 8.8375 9.08285 9.04742Z" fill="#6C89A9"/>
    <path fill-rule="evenodd" clip-rule="evenodd" d="M2.81373 8.13315C3.82819 5.04344 6.71883 2.93113 9.99998 2.93113C13.2811 2.93113 16.1718 5.04344 17.1862 8.13315C18.2225 8.43431 18.9632 9.38939 18.9632 10.5023C18.9632 11.6153 18.2224 12.5705 17.1859 12.8715C16.1696 15.9594 13.2802 18.0703 10.0003 18.0719C6.72037 18.0703 3.83037 15.9594 2.81405 12.8715C1.7776 12.5705 1.0368 11.6153 1.0368 10.5023C1.0368 9.38939 1.77745 8.4343 2.81373 8.13315ZM9.99998 4.18113C7.1521 4.18113 4.65664 6.08743 3.90769 8.83507C3.84013 9.08293 3.62778 9.2642 3.37238 9.29203C2.7547 9.35932 2.2868 9.88096 2.2868 10.5023C2.2868 11.1236 2.7547 11.6453 3.37238 11.7126C3.6276 11.7404 3.83985 11.9214 3.90756 12.1691C4.65846 14.9153 7.15297 16.8203 9.99998 16.8219C12.847 16.8203 15.3415 14.9153 16.0924 12.1691C16.1601 11.9214 16.3724 11.7404 16.6276 11.7126C17.2453 11.6453 17.7132 11.1236 17.7132 10.5023C17.7132 9.88096 17.2453 9.35932 16.6276 9.29203C16.3722 9.2642 16.1598 9.08293 16.0923 8.83507C15.3433 6.08743 12.8479 4.18113 9.99998 4.18113Z" fill="#6C89A9"/>
    <path fill-rule="evenodd" clip-rule="evenodd" d="M7.67658 12.5958C7.9035 12.3357 8.29831 12.3088 8.55842 12.5357C9.38439 13.2563 10.6156 13.2563 11.4415 12.5357C11.7017 12.3088 12.0965 12.3357 12.3234 12.5958C12.5503 12.8559 12.5234 13.2507 12.2633 13.4776C10.9665 14.609 9.03348 14.609 7.73667 13.4776C7.47656 13.2507 7.44966 12.8559 7.67658 12.5958Z" fill="#6C89A9"/>
    <path fill-rule="evenodd" clip-rule="evenodd" d="M9.37514 3.53857C9.38297 3.19348 9.66906 2.92007 10.0142 2.9279C11.2347 2.95558 12.2097 3.95296 12.2097 5.17383C12.2097 6.3947 11.2347 7.39208 10.0142 7.41976L9.9971 7.41991C9.53264 7.41778 9.08066 7.26929 8.70542 6.99556C8.42656 6.79213 8.36541 6.40115 8.56883 6.12229C8.77226 5.84343 9.16324 5.78227 9.4421 5.9857C9.60272 6.10287 9.79573 6.16718 9.99438 6.16985C10.5318 6.15313 10.9597 5.71252 10.9597 5.17383C10.9597 4.63228 10.5272 4.18986 9.98581 4.17758C9.64072 4.16975 9.36732 3.88366 9.37514 3.53857Z" fill="#6C89A9"/>
</svg>
