<svg width="18" height="18" viewBox="0 0 18 18" fill="none" xmlns="http://www.w3.org/2000/svg">
<path fill-rule="evenodd" clip-rule="evenodd" d="M11.025 11.6251C11.325 11.4001 11.475 11.1001 11.4 10.7251L11.175 9.5251L12 8.7001C12.225 8.4751 12.375 8.1001 12.225 7.8001C12.075 7.5001 11.85 7.2001 11.475 7.2001L10.275 7.0501L9.75 6.0001C9.6 5.7001 9.3 5.4751 8.925 5.4751C8.55 5.4751 8.25 5.7001 8.1 6.0001L7.575 7.0501L6.45 7.2001C6.075 7.2751 5.85 7.5001 5.7 7.8001C5.625 8.1001 5.7 8.4751 5.925 8.7001L6.75 9.5251L6.525 10.7251C6.45 11.1001 6.6 11.4001 6.9 11.6251C7.05 11.7751 7.275 11.7751 7.425 11.7751C7.575 11.7751 7.725 11.7751 7.875 11.7001L8.925 11.1751L9.975 11.7001C10.35 11.8501 10.725 11.8501 11.025 11.6251ZM9.3 10.0501C9.225 10.0501 9.225 10.0501 9.3 10.0501C9.075 9.9751 8.925 9.9751 8.7 10.0501L7.8 10.5001L7.95 9.4501C7.95 9.3001 7.95 9.0751 7.8 8.9251L7.05 8.1751L8.1 8.0251C8.25 8.0251 8.475 7.8751 8.55 7.7251L9 6.8251L9.45 7.8001C9.525 7.9501 9.675 8.1001 9.9 8.1001L10.95 8.2501L10.2 9.0001C10.05 9.1501 9.975 9.3001 10.05 9.5251L10.2 10.5751L9.3 10.0501Z" fill="url(#paint0_linear_136_1402)"/>
<path fill-rule="evenodd" clip-rule="evenodd" d="M6.75 13.2751C5.25 13.3501 4.275 14.4001 4.125 15.7501C4.125 16.0501 4.2 16.4251 4.425 16.6501C4.65 16.8751 4.95 16.9501 5.25 16.9501H5.325C6.75 16.8751 7.725 15.8251 7.875 14.4751C7.875 14.1751 7.8 13.8001 7.575 13.5751C7.35 13.4251 7.05 13.2751 6.75 13.2751ZM5.325 15.9001C5.4 15.0751 5.925 14.4751 6.825 14.4001C6.75 15.2251 6.15 15.8251 5.325 15.9001Z" fill="url(#paint1_linear_136_1402)"/>
<path fill-rule="evenodd" clip-rule="evenodd" d="M4.95 11.8501C4.95 11.5501 4.8 11.2501 4.575 11.0251C4.05 10.5751 3.45 10.3501 2.775 10.3501C2.1 10.3501 1.5 10.5751 0.975 11.0251C0.75 11.2501 0.6 11.5501 0.6 11.9251C0.6 12.2251 0.75 12.5251 0.975 12.7501C1.5 13.2001 2.1 13.4251 2.775 13.4251C3.45 13.4251 4.05 13.2001 4.575 12.7501C4.8 12.5251 4.95 12.2251 4.95 11.8501ZM2.775 12.3001C2.4 12.3001 2.025 12.1501 1.725 11.9251C2.025 11.6251 2.4 11.4751 2.775 11.4751C3.15 11.4751 3.525 11.6251 3.825 11.8501C3.525 12.1501 3.15 12.3001 2.775 12.3001Z" fill="url(#paint2_linear_136_1402)"/>
<path fill-rule="evenodd" clip-rule="evenodd" d="M2.925 9.0001H3C3.3 9.0001 3.6 8.8501 3.75 8.7001C3.975 8.4751 4.125 8.1751 4.125 7.8001C4.05 6.3751 3 5.3251 1.575 5.2501H1.5C1.2 5.2501 0.9 5.3251 0.75 5.5501C0.525 5.7751 0.375 6.0751 0.375 6.4501C0.45 7.8751 1.5 8.8501 2.925 9.0001ZM3 7.8751C2.175 7.8001 1.575 7.2001 1.5 6.3751C2.325 6.4501 2.925 7.0501 3 7.8751Z" fill="url(#paint3_linear_136_1402)"/>
<path fill-rule="evenodd" clip-rule="evenodd" d="M4.725 5.4001C5.025 5.4001 5.325 5.2501 5.55 5.0251C6.525 3.9001 6.525 2.4751 5.55 1.3501C5.4 1.1251 5.025 0.975098 4.725 0.975098C4.425 0.975098 4.125 1.1251 3.9 1.3501C2.925 2.4751 2.925 3.9001 3.9 5.0251C4.05 5.2501 4.425 5.4001 4.725 5.4001ZM4.725 2.1001C5.325 2.7751 5.325 3.6001 4.725 4.2751C4.125 3.6001 4.125 2.7751 4.725 2.1001Z" fill="url(#paint4_linear_136_1402)"/>
<path fill-rule="evenodd" clip-rule="evenodd" d="M11.25 13.2751C10.875 13.2751 10.575 13.4251 10.35 13.5751C10.125 13.8001 9.975 14.1001 10.05 14.4751C10.125 15.9001 11.175 16.8751 12.6 16.9501H12.675C12.975 16.9501 13.275 16.8001 13.5 16.6501C13.725 16.4251 13.875 16.1251 13.8 15.7501C13.725 14.4001 12.675 13.3501 11.25 13.2751ZM11.25 14.4001C12.075 14.4751 12.675 15.0001 12.75 15.9001C11.85 15.8251 11.25 15.2251 11.25 14.4001Z" fill="url(#paint5_linear_136_1402)"/>
<path fill-rule="evenodd" clip-rule="evenodd" d="M15.225 10.3501C14.55 10.3501 13.95 10.5751 13.425 11.0251C13.2 11.2501 13.05 11.5501 13.05 11.8501C13.05 12.1501 13.2 12.4501 13.425 12.6751C13.95 13.1251 14.55 13.3501 15.225 13.3501C15.9 13.3501 16.5 13.1251 17.025 12.6751C17.25 12.4501 17.4 12.1501 17.4 11.8501C17.4 11.5501 17.25 11.2501 17.025 11.0251C16.5 10.5751 15.9 10.3501 15.225 10.3501ZM15.225 12.3001C14.85 12.3001 14.475 12.1501 14.175 11.8501C14.475 11.5501 14.85 11.4751 15.225 11.4751C15.6 11.4751 15.975 11.6251 16.275 11.9251C15.975 12.1501 15.6 12.3001 15.225 12.3001Z" fill="url(#paint6_linear_136_1402)"/>
<path fill-rule="evenodd" clip-rule="evenodd" d="M13.875 7.8001C13.875 8.1001 13.95 8.4751 14.25 8.7001C14.475 8.9251 14.775 9.0001 15 9.0001H15.075C16.5 8.8501 17.475 7.8751 17.55 6.4501C17.55 6.1501 17.475 5.7751 17.175 5.5501C17.1 5.3251 16.8 5.2501 16.5 5.2501H16.425C15 5.3251 13.95 6.3751 13.875 7.8001ZM16.5 6.3751C16.425 7.2001 15.9 7.8001 15 7.8751C15.075 7.0501 15.675 6.4501 16.5 6.3751Z" fill="url(#paint7_linear_136_1402)"/>
<path fill-rule="evenodd" clip-rule="evenodd" d="M13.275 5.4001C13.575 5.4001 13.875 5.2501 14.1 5.0251C15.075 3.9001 15.075 2.4751 14.1 1.3501C13.875 1.1251 13.575 0.975098 13.275 0.975098C12.975 0.975098 12.675 1.1251 12.45 1.3501C11.475 2.4751 11.475 3.9001 12.45 5.0251C12.675 5.2501 12.975 5.4001 13.275 5.4001ZM13.275 2.1001C13.875 2.7751 13.875 3.6001 13.275 4.2751C12.675 3.6001 12.675 2.7751 13.275 2.1001Z" fill="url(#paint8_linear_136_1402)"/>
<defs>
<linearGradient id="paint0_linear_136_1402" x1="8.9625" y1="0.975098" x2="8.9625" y2="16.9501" gradientUnits="userSpaceOnUse">
<stop stop-color="#8000FF"/>
<stop offset="1" stop-color="#DB00FF"/>
</linearGradient>
<linearGradient id="paint1_linear_136_1402" x1="8.9625" y1="0.975098" x2="8.9625" y2="16.9501" gradientUnits="userSpaceOnUse">
<stop stop-color="#8000FF"/>
<stop offset="1" stop-color="#DB00FF"/>
</linearGradient>
<linearGradient id="paint2_linear_136_1402" x1="8.9625" y1="0.975098" x2="8.9625" y2="16.9501" gradientUnits="userSpaceOnUse">
<stop stop-color="#8000FF"/>
<stop offset="1" stop-color="#DB00FF"/>
</linearGradient>
<linearGradient id="paint3_linear_136_1402" x1="8.9625" y1="0.975098" x2="8.9625" y2="16.9501" gradientUnits="userSpaceOnUse">
<stop stop-color="#8000FF"/>
<stop offset="1" stop-color="#DB00FF"/>
</linearGradient>
<linearGradient id="paint4_linear_136_1402" x1="8.9625" y1="0.975098" x2="8.9625" y2="16.9501" gradientUnits="userSpaceOnUse">
<stop stop-color="#8000FF"/>
<stop offset="1" stop-color="#DB00FF"/>
</linearGradient>
<linearGradient id="paint5_linear_136_1402" x1="8.9625" y1="0.975098" x2="8.9625" y2="16.9501" gradientUnits="userSpaceOnUse">
<stop stop-color="#8000FF"/>
<stop offset="1" stop-color="#DB00FF"/>
</linearGradient>
<linearGradient id="paint6_linear_136_1402" x1="8.9625" y1="0.975098" x2="8.9625" y2="16.9501" gradientUnits="userSpaceOnUse">
<stop stop-color="#8000FF"/>
<stop offset="1" stop-color="#DB00FF"/>
</linearGradient>
<linearGradient id="paint7_linear_136_1402" x1="8.9625" y1="0.975098" x2="8.9625" y2="16.9501" gradientUnits="userSpaceOnUse">
<stop stop-color="#8000FF"/>
<stop offset="1" stop-color="#DB00FF"/>
</linearGradient>
<linearGradient id="paint8_linear_136_1402" x1="8.9625" y1="0.975098" x2="8.9625" y2="16.9501" gradientUnits="userSpaceOnUse">
<stop stop-color="#8000FF"/>
<stop offset="1" stop-color="#DB00FF"/>
</linearGradient>
</defs>
</svg>
