<svg width="24" height="24" viewBox="0 0 24 24" fill="none" xmlns="http://www.w3.org/2000/svg">
<path fill-rule="evenodd" clip-rule="evenodd" d="M3.75 5C3.75 4.30921 4.30921 3.75 5 3.75H19C19.6908 3.75 20.25 4.30921 20.25 5V13C20.25 13.6908 19.6908 14.25 19 14.25H16C15.5858 14.25 15.25 14.5858 15.25 15C15.25 15.4142 15.5858 15.75 16 15.75H19C20.5192 15.75 21.75 14.5192 21.75 13V5C21.75 3.48079 20.5192 2.25 19 2.25H5C3.48079 2.25 2.25 3.48079 2.25 5V13C2.25 14.5192 3.48079 15.75 5 15.75H8C8.41421 15.75 8.75 15.4142 8.75 15C8.75 14.5858 8.41421 14.25 8 14.25H5C4.30921 14.25 3.75 13.6908 3.75 13V5ZM6.5 6.25C6.91421 6.25 7.25 6.58579 7.25 7V11C7.25 11.4142 6.91421 11.75 6.5 11.75C6.08579 11.75 5.75 11.4142 5.75 11V7C5.75 6.58579 6.08579 6.25 6.5 6.25ZM12.8837 8.11632C12.3956 7.62822 11.6044 7.62822 11.1163 8.11632C10.6282 8.60443 10.6282 9.39556 11.1163 9.88366C11.6044 10.3718 12.3956 10.3718 12.8837 9.88366C13.3718 9.39556 13.3718 8.60443 12.8837 8.11632ZM13.9443 7.05566C12.8704 5.98177 11.1296 5.98177 10.0557 7.05566C8.98177 8.12956 8.98177 9.87043 10.0557 10.9443C11.1296 12.0182 12.8704 12.0182 13.9443 10.9443C15.0182 9.87043 15.0182 8.12956 13.9443 7.05566ZM18.25 7C18.25 6.58579 17.9142 6.25 17.5 6.25C17.0858 6.25 16.75 6.58579 16.75 7V11C16.75 11.4142 17.0858 11.75 17.5 11.75C17.9142 11.75 18.25 11.4142 18.25 11V7ZM12.75 16C12.75 15.5858 12.4142 15.25 12 15.25C11.5858 15.25 11.25 15.5858 11.25 16V19.1893L10.5303 18.4697C10.2374 18.1768 9.76256 18.1768 9.46967 18.4697C9.17678 18.7626 9.17678 19.2374 9.46967 19.5303L11.4697 21.5303C11.5416 21.6022 11.6245 21.6565 11.7129 21.6931C11.8013 21.7298 11.8983 21.75 12 21.75C12.1017 21.75 12.1987 21.7298 12.2871 21.6931C12.3755 21.6565 12.4584 21.6022 12.5303 21.5303L14.5303 19.5303C14.8232 19.2374 14.8232 18.7626 14.5303 18.4697C14.2374 18.1768 13.7626 18.1768 13.4697 18.4697L12.75 19.1893V16Z" fill="white"/>
</svg>
