<svg width="19" height="19" viewBox="0 0 19 19" fill="none" xmlns="http://www.w3.org/2000/svg">
    <g clip-path="url(#clip0_94_756)">
        <path fill-rule="evenodd" clip-rule="evenodd" d="M10.2125 1.61928L16.7904 5.42996C18.0076 6.13507 18.0437 7.87959 16.8568 8.63449L15.3125 9.6167V13.4999C15.3125 13.9426 15.1701 14.3981 14.849 14.7573C14.4683 15.1832 13.7809 15.8762 12.874 16.466C11.9689 17.0546 10.8106 17.5624 9.5 17.5624C8.20524 17.5624 7.00465 17.0664 6.04278 16.4919C5.0766 15.9148 4.31001 15.2337 3.87231 14.8066C3.49092 14.4343 3.3125 13.9322 3.3125 13.4363V9.66748L1.8125 8.71345V11.7499C1.8125 12.0606 1.56066 12.3124 1.25 12.3124C0.93934 12.3124 0.6875 12.0606 0.6875 11.7499V7.24994C0.6875 7.10757 0.740394 6.97755 0.827604 6.87846C0.880076 6.30702 1.19051 5.75682 1.75473 5.42996L8.3327 1.61928C8.91404 1.28251 9.63113 1.28251 10.2125 1.61928ZM10.2788 12.8182L14.1875 10.3322V13.4999C14.1875 13.7064 14.1218 13.8828 14.0103 14.0076C13.6682 14.3902 13.0555 15.006 12.2607 15.5228C11.4641 16.0408 10.5189 16.4374 9.5 16.4374C8.48566 16.4374 7.48824 16.0448 6.61967 15.526C5.75543 15.0098 5.05916 14.3929 4.65808 14.0014C4.51944 13.8661 4.4375 13.6672 4.4375 13.4363V10.383L8.26633 12.8182C8.88033 13.2087 9.66483 13.2087 10.2788 12.8182ZM9.64854 2.59273C9.416 2.45802 9.12916 2.45802 8.89663 2.59273L2.31866 6.40341C1.83179 6.68546 1.81734 7.38327 2.29211 7.68523L8.87008 11.8689C9.11568 12.0251 9.42948 12.0251 9.67509 11.8689L16.2531 7.68523C16.7278 7.38327 16.7134 6.68546 16.2265 6.40341L9.64854 2.59273Z" fill="#6C89A9"/>
    </g>
    <defs>
        <clipPath id="clip0_94_756">
            <rect width="18" height="18" fill="white" transform="translate(0.5 0.5)"/>
        </clipPath>
    </defs>
</svg>
