<svg width="14" height="14" viewBox="0 0 14 14" fill="none" xmlns="http://www.w3.org/2000/svg">
<path fill-rule="evenodd" clip-rule="evenodd" d="M3.16533 5.35465V8.6674C3.16533 9.31188 3.68779 9.83434 4.33228 9.83434H9.66783C10.3118 9.83434 10.8339 9.31278 10.8348 8.66906L10.8348 8.66745V5.35465C10.8348 5.04726 10.6656 4.76483 10.3946 4.6198C10.1236 4.47476 9.79473 4.49065 9.53898 4.66116L8.47263 5.37206L7.69357 4.20343C7.539 3.97155 7.27875 3.83228 7.00008 3.83228C6.7214 3.83228 6.46116 3.97155 6.30658 4.20343L5.52749 5.37206L4.46113 4.66117C4.20538 4.49067 3.87655 4.47477 3.60554 4.6198C3.33455 4.76482 3.16533 5.04724 3.16533 5.35465ZM7.00007 4.96596L6.08219 6.34279C5.92902 6.57255 5.61858 6.63464 5.38882 6.48146L4.16533 5.66582V8.6674C4.16533 8.7596 4.24008 8.83434 4.33228 8.83434H9.66783C9.76003 8.83434 9.83478 8.7596 9.83478 8.6674V5.66581L8.61129 6.48146C8.50096 6.55502 8.36592 6.58173 8.23588 6.55572C8.10585 6.52972 7.99147 6.45312 7.91791 6.34278L7.00007 4.96596Z" fill="url(#paint0_linear_287_999)"/>
<path fill-rule="evenodd" clip-rule="evenodd" d="M7.00003 0.497559C3.4088 0.497559 0.497528 3.40883 0.497528 7.00006C0.497528 10.5913 3.4088 13.5026 7.00003 13.5026C10.5913 13.5026 13.5025 10.5913 13.5025 7.00006C13.5025 3.40883 10.5913 0.497559 7.00003 0.497559ZM1.49753 7.00006C1.49753 3.96111 3.96108 1.49756 7.00003 1.49756C10.039 1.49756 12.5025 3.96111 12.5025 7.00006C12.5025 10.039 10.039 12.5026 7.00003 12.5026C3.96108 12.5026 1.49753 10.039 1.49753 7.00006Z" fill="url(#paint1_linear_287_999)"/>
<defs>
<linearGradient id="paint0_linear_287_999" x1="7.00003" y1="0.497559" x2="7.00003" y2="13.5026" gradientUnits="userSpaceOnUse">
<stop stop-color="#8000FF"/>
<stop offset="1" stop-color="#DB00FF"/>
</linearGradient>
<linearGradient id="paint1_linear_287_999" x1="7.00003" y1="0.497559" x2="7.00003" y2="13.5026" gradientUnits="userSpaceOnUse">
<stop stop-color="#8000FF"/>
<stop offset="1" stop-color="#DB00FF"/>
</linearGradient>
</defs>
</svg>
